<svg xmlns="http://www.w3.org/2000/svg" width="39" height="34" viewBox="0 0 39 34">
  <g id="add-to-cart" transform="translate(0 -30.638)">
    <g id="Icons_1_" transform="translate(0 30.638)">
      <g id="Group_6" data-name="Group 6">
        <path id="Path_2028" data-name="Path 2028" d="M38.449,58.755a3.086,3.086,0,0,0-2.527-1.313H28.406a3.2,3.2,0,0,1,2.56,2.568h4.956a.495.495,0,0,1,.467.669l-3.574,9.573a.5.5,0,0,1-.468.324H12.307L9.113,57.019a3.706,3.706,0,0,0-3.624-2.858H1.935a1.926,1.926,0,1,0,0,3.851H5.373l4.3,18.253A3.7,3.7,0,0,0,13.2,79.114a3.978,3.978,0,1,0,4.669.009h7.42a3.978,3.978,0,1,0,4.677,0h1.8a1.926,1.926,0,1,0,0-3.851H13.413l-.5-2.129H32.348a3.093,3.093,0,0,0,2.886-2l3.574-9.574A3.058,3.058,0,0,0,38.449,58.755Z" transform="translate(0 -52.269)"/>
        <path id="Path_2029" data-name="Path 2029" d="M211.635,45.038a.73.73,0,0,0,1.035,0l5.391-5.389a.732.732,0,0,0,.16-.8.773.773,0,0,0-.678-.454H215.46V31.373a.737.737,0,0,0-.735-.735h-5.146a.734.734,0,0,0-.734.734V38.4h-2.082a.8.8,0,0,0-.678.452.736.736,0,0,0,.158.8Z" transform="translate(-189.759 -30.638)"/>
      </g>
    </g>
  </g>
</svg>
