<svg xmlns="http://www.w3.org/2000/svg" width="43" height="41" viewBox="0 0 43 41">
  <g id="shopping-bags" transform="translate(-498 96.792)">
    <g id="Group_4" data-name="Group 4" transform="translate(0 4.035)">
      <g id="Group_3" data-name="Group 3">
        <g id="Group_5" data-name="Group 5" transform="translate(493)">
          <path id="Path_2025" data-name="Path 2025" d="M42.723,17.959a.972.972,0,0,0-.8-.258H30.519V12.8A8.9,8.9,0,0,0,21.5,4.035,8.9,8.9,0,0,0,12.48,12.8v4.9H1.073c-.318,0-.637,0-.8.258a.862.862,0,0,0-.265.774L3.991,39.878a6.423,6.423,0,0,0,6.261,5.157h22.5a6.473,6.473,0,0,0,6.261-5.209l3.979-21.093A.862.862,0,0,0,42.723,17.959ZM14.6,12.8a6.9,6.9,0,0,1,13.795,0v4.9H14.6ZM36.886,39.568a4.212,4.212,0,0,1-4.138,3.4h-22.5a4.212,4.212,0,0,1-4.138-3.4l-3.767-19.8H40.653Z" transform="translate(5 -104.862)" fill="#222"/>
          <path id="Path_2026" data-name="Path 2026" d="M123.947,218.288A1.055,1.055,0,0,0,125,217.233v-3.165a1.055,1.055,0,1,0-2.11,0v3.165A1.055,1.055,0,0,0,123.947,218.288Z" transform="translate(-105.396 -295.354)" fill="#222"/>
          <path id="Path_2027" data-name="Path 2027" d="M123.947,218.288A1.055,1.055,0,0,0,125,217.234v-3.165a1.055,1.055,0,1,0-2.11,0v3.165A1.055,1.055,0,0,0,123.947,218.288Z" transform="translate(-89.482 -295.354)" fill="#222"/>
        </g>
      </g>
    </g>
  </g>
</svg>
