<svg xmlns="http://www.w3.org/2000/svg" width="180" height="94" viewBox="0 0 180 94">
  <g id="PlayAlongLogo" transform="translate(0 0)">
    <path id="Path_2016" data-name="Path 2016" d="M539.492,302.018q-.588,0-1.477-.031c-.588-.02-1.207-.047-1.85-.076l-1.834-.094c-.588-.031-1.068-.067-1.462-.108q.312-1.618.886-4.54t1.383-6.638q.809-3.723,1.71-7.788t1.85-8.1q.95-4.024,1.8-7.553t1.567-6.109q1.895-.28,4.616-.56a54.346,54.346,0,0,1,5.551-.28q1.211,0,2.518.063t2.486.217q.588,2.743,1.2,6.528t1.176,8.831q.576,5.037,1.15,11.425t1.134,14.348q-.715.123-1.895.233t-2.441.17c-.839.041-1.612.063-2.316.063q-.063-.9-.125-2.363t-.17-3.249q-.108-1.787-.2-3.576t-.17-3.311q-.078-1.522-.141-2.486-.993.033-2.426.092t-3,.172q-1.567.11-3.015.233t-2.5.249q-1.058.123-1.4.2-.562,2.641-1.089,5.347t-.933,4.975Q539.68,300.556,539.492,302.018Zm3.45-19.4a31.778,31.778,0,0,1,3.188-.466q2.034-.217,4.258-.374t3.864-.219q-.061-.931-.217-3.062t-.37-4.647q-.219-2.52-.437-4.773t-.4-3.5c-.476,0-1.156.031-2.036.094s-1.732.123-2.547.186a15,15,0,0,0-1.726.2c-.125.519-.312,1.321-.56,2.41s-.539,2.382-.87,3.885-.68,3.135-1.042,4.883-.725,3.538-1.1,5.384Z" transform="translate(-436.466 -260.14)" fill="#222"/>
    <path id="Path_2017" data-name="Path 2017" d="M708.563,286.643q-.558-.839-1.522-2.58t-2.13-3.995q-1.176-2.251-2.41-4.726t-2.379-4.834q-1.134-2.363-2.02-4.259t-1.323-2.99a19.306,19.306,0,0,1,3.468-1,27.542,27.542,0,0,1,2.968-.4q.186.652.839,2.269t1.587,3.809q.931,2.192,1.942,4.493t1.944,4.348q.931,2.036,1.616,3.343.406-.807,1.26-2.547t1.959-3.932l2.224-4.414q1.119-2.224,2.067-4.058t1.485-2.806a11.154,11.154,0,0,1,2.269.621,20.338,20.338,0,0,1,2.1.948q.98.515,1.695.98-1.336,1.863-3.135,4.912t-4.024,7.181q-2.234,4.136-4.82,9.265.031,1.087.063,2.782t.047,3.39q.014,1.693.016,2.814v3q0,1.632.014,2.939c.012.872.016,1.442.016,1.71a7.731,7.731,0,0,1-1.134.157q-.76.063-1.632.061-.933,0-1.9-.076c-.643-.053-1.223-.12-1.74-.2q0-1.242.061-3.233t.157-4.31q.092-2.334.2-4.6T708.563,286.643Z" transform="translate(-568.354 -261.523)" fill="#222"/>
    <path id="Path_2018" data-name="Path 2018" d="M46.622,562.288c-.392,0-.888-.012-1.477-.031s-1.207-.047-1.85-.078l-1.834-.094c-.588-.031-1.068-.067-1.462-.108q.312-1.616.886-4.54t1.383-6.638q.809-3.723,1.71-7.788t1.85-8.1q.948-4.026,1.8-7.555t1.567-6.109q1.9-.28,4.616-.558a53.794,53.794,0,0,1,5.551-.28q1.211,0,2.518.061t2.486.219q.588,2.733,1.2,6.528t1.176,8.829q.576,5.037,1.15,11.427t1.134,14.348c-.476.082-1.109.159-1.895.231s-1.6.129-2.441.172-1.612.063-2.316.063q-.065-.9-.125-2.363t-.17-3.25q-.11-1.787-.2-3.574t-.17-3.311q-.08-1.526-.141-2.488-.993.033-2.426.094t-3,.171q-1.567.11-3.015.233t-2.5.249c-.705.084-1.176.145-1.4.186q-.56,2.645-1.089,5.347t-.929,4.975Q46.81,560.828,46.622,562.288Zm3.45-19.4q1.148-.247,3.188-.466t4.258-.372q2.224-.155,3.872-.217-.061-.935-.217-3.064t-.372-4.647q-.227-2.524-.437-4.781t-.4-3.5c-.476,0-1.156.029-2.036.092l-2.547.2a16.037,16.037,0,0,0-1.726.2q-.2.784-.56,2.408t-.87,3.887q-.5,2.241-1.052,4.869t-1.1,5.394Z" transform="translate(-40 -469.406)" fill="#222"/>
    <path id="Path_2019" data-name="Path 2019" d="M387.205,564.966a16.286,16.286,0,0,1-9.84-2.8,16.461,16.461,0,0,1-5.682-7.555,29.264,29.264,0,0,1-1.834-10.6,30.288,30.288,0,0,1,1.942-11.254,16.725,16.725,0,0,1,5.8-7.641,16.058,16.058,0,0,1,9.6-2.766,16.881,16.881,0,0,1,8.033,1.763,14.7,14.7,0,0,1,5.378,4.818,21.336,21.336,0,0,1,3.015,6.995,35.086,35.086,0,0,1,.948,8.254,30.533,30.533,0,0,1-.987,7.945,19.679,19.679,0,0,1-3.135,6.638,14.965,14.965,0,0,1-5.408,4.54A17.182,17.182,0,0,1,387.205,564.966Zm-.084-6.187a10.434,10.434,0,0,0,6.7-2.067,11.8,11.8,0,0,0,3.791-5.457,21.943,21.943,0,0,0,1.2-7.369,31.238,31.238,0,0,0-.558-5.937,17.517,17.517,0,0,0-1.834-5.192,10.055,10.055,0,0,0-3.421-3.67,9.8,9.8,0,0,0-5.378-1.372,9.7,9.7,0,0,0-6.513,2.155,12.486,12.486,0,0,0-3.723,5.86,27.572,27.572,0,0,0-1.176,8.364,22.173,22.173,0,0,0,1.166,7.351,11.7,11.7,0,0,0,3.589,5.333A9.406,9.406,0,0,0,387.121,558.779Z" transform="translate(-305.337 -470.966)" fill="#222"/>
    <path id="Path_2020" data-name="Path 2020" d="M600.137,569.911q-1.058,0-2.379-.031t-2.488-.094q-1.164-.063-1.85-.123-.033-.562-.047-2.612t-.047-5.082q-.029-3.033-.029-6.53t-.016-7.01q-.018-3.513-.016-6.5v-4.618q0-2.251-.031-4.087t-.094-2.986q.468,0,1.354.047t1.91.094c.684.031,1.342.076,1.975.139a15.094,15.094,0,0,1,1.538.217q2.363,3.483,4.7,7.385t4.571,7.819q2.222,3.919,4.15,7.569t3.421,6.7l-1.371-29.565c.478,0,1.017.02,1.618.063s1.207.1,1.818.17,1.176.161,1.695.265a11.148,11.148,0,0,1,1.242.31q.094,1.744.2,4.2t.17,5.29q.076,2.845.139,5.8t.094,5.737q.029,2.784.031,5.082,0,2.083-.031,4.089t-.11,3.668q-.076,1.663-.2,2.813a14.273,14.273,0,0,1-.2,1.556q-.686.029-1.336.045c-.435.012-.86.016-1.276.016q-.9,0-1.71-.029a12.133,12.133,0,0,1-1.4-.125q-.435-.807-1.567-2.829l-2.7-4.808q-1.567-2.8-3.331-5.954t-3.523-6.213q-1.742-3.06-3.188-5.627t-2.379-4.15q.094.931.172,3.186t.139,5.29q.061,3.031.139,6.327t.125,6.358q.047,3.062.078,5.394T600.137,569.911Z" transform="translate(-484.948 -477.311)" fill="#222"/>
    <path id="Path_2021" data-name="Path 2021" d="M803.652,562.556a20.6,20.6,0,0,1-10.725-2.58,16.25,16.25,0,0,1-6.53-7.414,27.74,27.74,0,0,1-2.206-11.581,28.688,28.688,0,0,1,2.036-11.168,17.025,17.025,0,0,1,5.97-7.6,16.289,16.289,0,0,1,9.622-2.743,17.954,17.954,0,0,1,6.326,1.042,16.2,16.2,0,0,1,4.724,2.659,13.987,13.987,0,0,1,3,3.331,11.744,11.744,0,0,1-1.15,1.258q-.811.794-1.763,1.6a16.431,16.431,0,0,1-1.8,1.338,13.23,13.23,0,0,0-2.659-3.135,8.265,8.265,0,0,0-3.076-1.6,14.5,14.5,0,0,0-3.84-.466,8.861,8.861,0,0,0-3.881.935,10.774,10.774,0,0,0-3.552,2.845,14.579,14.579,0,0,0-2.6,4.8,21.15,21.15,0,0,0-.98,6.777,23.256,23.256,0,0,0,1.415,8.535,11.529,11.529,0,0,0,4.318,5.535,13.012,13.012,0,0,0,7.385,1.942,9.136,9.136,0,0,0,5.347-1.4,7.727,7.727,0,0,0,2.845-3.668,13.729,13.729,0,0,0,.854-4.881c0-.353,0-.725-.016-1.121s-.035-.756-.078-1.087q-.682-.155-2.316-.392t-3.636-.478q-2-.249-3.872-.435t-3.045-.249c-.021-.392-.031-.888-.031-1.477s.01-1.191.031-1.8.039-1.115.061-1.509q2.33.094,5.658.4t6.732.784q3.4.466,5.984,1.058.215,1.274.325,2.688t.11,2.69a21.98,21.98,0,0,1-1.567,8.519,12.683,12.683,0,0,1-4.881,5.905A15.491,15.491,0,0,1,803.652,562.556Z" transform="translate(-638.638 -468.651)" fill="#222"/>
    <path id="Path_2022" data-name="Path 2022" d="M231.887,296.6q.076-2.8.139-4.928t.094-3.092a22.4,22.4,0,0,0,2.5.325q1.385.11,2.533.11a18.157,18.157,0,0,0,7.23-1.276,9.174,9.174,0,0,0,4.446-3.9,13.132,13.132,0,0,0,1.507-6.607,9.759,9.759,0,0,0-1.522-5.659,8.791,8.791,0,0,0-4.354-3.249,19.373,19.373,0,0,0-6.714-1.042,54.062,54.062,0,0,0-6.109.312q-2.727.312-5.078.809-.123,1.764-.249,4.354t-.249,5.682q-.123,3.11-.247,6.482t-.219,6.717q-.092,3.343-.17,6.4c-.029,1.2-.057,6.727-.08,11.432l-.1,12.974c-.039,1.044-.069,2.206-.065,3.476,0,2.2.088,2.385.12,4.975s.047,5.224.047,7.9-.016,5.22-.047,7.7-.067,4.7-.11,6.7-.1,3.556-.2,4.7q2.363.094,4.82.125t5.094-.063q2.861-.063,6.062-.264t6.685-.545c.02-.6.031-1.3.031-2.083s-.012-1.544-.031-2.269-.041-1.285-.063-1.679q-2.7,0-5.6.094t-5.611.217q-2.721.124-4.865.249.09-1.152.155-3.063t.094-4.244q.061-3.388.123-7.054t.047-7.229q-.018-3.562-.078-6.662t-.155-5.3h-.024c0-4.791.025-14.169.059-15.735Q231.806,299.4,231.887,296.6Zm.264-14.769q.029-1.15.061-2.641t.047-2.971q.014-1.475.031-2.534t.016-1.276q1.763-.214,3.233-.325t2.643-.11a9.317,9.317,0,0,1,4.959,1.166q1.881,1.166,1.881,4.276a5.636,5.636,0,0,1-1.176,3.794,6.336,6.336,0,0,1-2.984,1.944,12.914,12.914,0,0,1-3.887.574q-1.3,0-2.58-.123t-2.3-.28Q232.118,282.98,232.151,281.828Z" transform="translate(-188.805 -265.878)" fill="#222"/>
    <g id="obDXYq" transform="translate(67.379 0.999)">
      <path id="Path_2023" data-name="Path 2023" d="M396.96,265.24a15.474,15.474,0,0,1,6.662,6.571.392.392,0,0,1-.084.57c-1.066,1.046-2.116,2.106-3.17,3.162a1.918,1.918,0,0,0-.286.333.674.674,0,0,0,.937.927,3.293,3.293,0,0,0,.443-.4c.948-.952,1.893-1.906,2.923-2.939.239.864.458,1.62.643,2.386.027.11-.1.288-.2.392q-2.671,2.667-5.347,5.335a1.7,1.7,0,0,0-.278.337.672.672,0,0,0,.907.925,1.74,1.74,0,0,0,.37-.3q2.263-2.257,4.526-4.522c.09-.09.2-.172.361-.331.027.746.065,1.4.069,2.061a.608.608,0,0,1-.2.361q-2.853,2.866-5.709,5.715c-.067.067-.137.129-.2.2a.7.7,0,0,0-.018,1,.669.669,0,0,0,1-.041c.848-.829,1.681-1.673,2.522-2.512l2.234-2.234c.073-.072.153-.135.325-.288-.155.962-.284,1.81-.439,2.655-.023.125-.157.239-.257.341q-2.584,2.586-5.174,5.182a2.549,2.549,0,0,0-.292.325.672.672,0,0,0,.893.964,2.229,2.229,0,0,0,.421-.362c1.232-1.232,2.463-2.469,3.709-3.723-.464,3.286-.927,6.536-1.391,9.816H387.587c-.043-1.078-.133-2.138-.118-3.2a10.749,10.749,0,0,1,1.752-6.129,6.9,6.9,0,0,1,1.863-1.838,8.858,8.858,0,0,0,3.683-4.289,13.627,13.627,0,0,0,.355-1.5c-.674.439-1.219.813-1.785,1.154a4.918,4.918,0,0,1-2.312.774.481.481,0,0,1-.2,0c-.758-.31-1.279.112-1.834.539a3.041,3.041,0,0,1-2.085.707,2.311,2.311,0,0,1-2.04-1.72,11.613,11.613,0,0,1-.392-1.422.98.98,0,0,1,.257-.917c1.822-2.124,3.633-4.258,5.459-6.379a1.154,1.154,0,0,0,.313-.821c-.016-1.946,0-3.891-.014-5.837a1.094,1.094,0,0,1,.458-1.025h.48a6.529,6.529,0,0,1,.554.611c.784,1.105,1.558,2.222,2.351,3.368.082-.155.147-.266.2-.382.482-.964.952-1.934,1.454-2.89a5.072,5.072,0,0,1,.549-.707Z" transform="translate(-384.453 -265.24)" fill="#222"/>
      <path id="Path_2024" data-name="Path 2024" d="M389.521,440.091a5.23,5.23,0,0,1-1.07-.656,1.9,1.9,0,0,1-.431-2.21,2.008,2.008,0,0,1,1.857-1.293h.392c-.1-.286-.2-.537-.265-.8a2.743,2.743,0,0,1,2.7-3.36c1.9-.025,3.811,0,5.717-.01H403.7a2.785,2.785,0,0,1,2.524,4.15c.263.018.488.014.705.051a2.079,2.079,0,0,1,.315,4.017c-.1.035-.2.076-.294.116Z" transform="translate(-387.174 -399.134)" fill="#222"/>
    </g>
  </g>
</svg>
